<?xml version="1.0" encoding="UTF-8" standalone="no"?>
<!-- Created with Inkscape (http://www.inkscape.org/) -->

<svg
   width="210mm"
   height="297mm"
   viewBox="0 0 210 297"
   version="1.1"
   id="svg1"
   inkscape:version="1.3.2 (091e20e, 2023-11-25, custom)"
   sodipodi:docname="4012.svg"
   xmlns:inkscape="http://www.inkscape.org/namespaces/inkscape"
   xmlns:sodipodi="http://sodipodi.sourceforge.net/DTD/sodipodi-0.dtd"
   xmlns="http://www.w3.org/2000/svg"
   xmlns:svg="http://www.w3.org/2000/svg">
  <sodipodi:namedview
     id="namedview1"
     pagecolor="#505050"
     bordercolor="#ffffff"
     borderopacity="1"
     inkscape:showpageshadow="0"
     inkscape:pageopacity="0"
     inkscape:pagecheckerboard="1"
     inkscape:deskcolor="#505050"
     inkscape:document-units="mm"
     showgrid="true"
     inkscape:zoom="4.1877625"
     inkscape:cx="145.66251"
     inkscape:cy="32.833762"
     inkscape:window-width="1920"
     inkscape:window-height="1027"
     inkscape:window-x="-8"
     inkscape:window-y="-8"
     inkscape:window-maximized="1"
     inkscape:current-layer="layer1">
    <inkscape:grid
       id="grid2"
       units="mm"
       originx="0"
       originy="0"
       spacingx="0.99999998"
       spacingy="1"
       empcolor="#0099e5"
       empopacity="0.30196078"
       color="#0099e5"
       opacity="0.14901961"
       empspacing="5"
       dotted="false"
       gridanglex="30"
       gridanglez="30"
       visible="true" />
  </sodipodi:namedview>
  <defs
     id="defs1" />
  <g
     inkscape:label="Layer 1"
     inkscape:groupmode="layer"
     id="layer1">
    <path
       style="fill:none;stroke:#05ff35;stroke-width:0.436382;stroke-dasharray:none"
       d="M 25,0 V 50"
       id="path1" />
    <path
       style="fill:none;stroke:#05ff35;stroke-width:0.478464"
       d="M 0,25.021626 H 50"
       id="path2" />
    <circle
       style="fill:none;stroke:#05ff35;stroke-width:0.175298;stroke-dasharray:none"
       id="path3"
       cx="25"
       cy="25"
       r="2.4123511" />
    <path
       style="fill:none;stroke:#05ff35;stroke-width:0.148099;stroke-dasharray:none"
       d="m 5.0100495,24 v 2"
       id="path4" />
    <path
       style="fill:none;stroke:#05ff35;stroke-width:0.148099;stroke-dasharray:none"
       d="m 10.00005,24 v 2"
       id="path4-4" />
    <path
       style="fill:none;stroke:#05ff35;stroke-width:0.148099;stroke-dasharray:none"
       d="m 15.00005,24 v 2"
       id="path4-4-4" />
    <path
       style="fill:none;stroke:#05ff35;stroke-width:0.148099;stroke-dasharray:none"
       d="m 20.00005,24 v 2"
       id="path4-4-4-8" />
    <path
       style="fill:none;stroke:#05ff35;stroke-width:0.148099;stroke-dasharray:none"
       d="m 30.00005,24 v 2"
       id="path5" />
    <path
       style="fill:none;stroke:#05ff35;stroke-width:0.148099;stroke-dasharray:none"
       d="m 35.00005,24 v 2"
       id="path6" />
    <path
       style="fill:none;stroke:#05ff35;stroke-width:0.148099;stroke-dasharray:none"
       d="m 40.00005,24 v 2"
       id="path7" />
    <path
       style="fill:none;stroke:#05ff35;stroke-width:0.148099;stroke-dasharray:none"
       d="m 45.00005,24 v 2"
       id="path8" />
    <path
       style="fill:none;stroke:#05ff35;stroke-width:0.142346;stroke-dasharray:none"
       d="m 24,4.997173 h 2"
       id="path9" />
    <path
       style="fill:none;stroke:#05ff35;stroke-width:0.142346;stroke-dasharray:none"
       d="m 24,9.997173 h 2"
       id="path10" />
    <path
       style="fill:none;stroke:#05ff35;stroke-width:0.142346;stroke-dasharray:none"
       d="m 24,19.997173 h 2"
       id="path11" />
    <path
       style="fill:none;stroke:#05ff35;stroke-width:0.142346;stroke-dasharray:none"
       d="m 24,14.997173 h 2"
       id="path12" />
    <path
       style="fill:none;stroke:#05ff35;stroke-width:0.142346;stroke-dasharray:none"
       d="m 24,39.997173 h 2"
       id="path13" />
    <path
       style="fill:none;stroke:#05ff35;stroke-width:0.142346;stroke-dasharray:none"
       d="m 24,34.997173 h 2"
       id="path14" />
    <path
       style="fill:none;stroke:#05ff35;stroke-width:0.142346;stroke-dasharray:none"
       d="m 24,29.997173 h 2"
       id="path16" />
    <path
       style="fill:none;stroke:#05ff35;stroke-width:0.142346;stroke-dasharray:none"
       d="m 24,44.997173 h 2"
       id="path17" />
    <path
       style="fill:none;stroke:#05ff35;stroke-width:0.218;stroke-dasharray:none"
       d="M 4.9280492,33.927724 33.295923,32.600942 c 0,0 1.017597,-18.366504 1.200422,-21.291701 C 35.886307,-10.930161 43.302905,22.12421 50,23.26145"
       id="path20"
       sodipodi:nodetypes="ccsc" />
    <path
       style="color:#000000;fill:#05ff35;stroke-dasharray:1.308, 0.436;-inkscape-stroke:none"
       d="M 0,3.3222656 V 3.5390625 H 1.1679687 V 3.3222656 Z m 1.6035156,0 V 3.5390625 H 2.9121094 V 3.3222656 Z m 1.7441407,0 V 3.5390625 H 4.65625 V 3.3222656 Z m 1.7441406,0 V 3.5390625 H 6.4003906 V 3.3222656 Z m 1.7441406,0 V 3.5390625 H 8.1445313 V 3.3222656 Z m 1.7441406,0 V 3.5390625 H 9.8886719 V 3.3222656 Z m 1.7441409,0 v 0.2167969 h 1.308594 V 3.3222656 Z m 1.74414,0 v 0.2167969 h 1.308594 V 3.3222656 Z m 1.744141,0 v 0.2167969 h 1.306641 V 3.3222656 Z m 1.744141,0 v 0.2167969 h 1.30664 V 3.3222656 Z m 1.74414,0 v 0.2167969 h 1.306641 V 3.3222656 Z m 1.744141,0 v 0.2167969 h 1.30664 V 3.3222656 Z m 1.742187,0 v 0.2167969 h 1.308594 V 3.3222656 Z m 1.744141,0 v 0.2167969 h 1.308594 V 3.3222656 Z m 1.744141,0 v 0.2167969 h 1.308593 V 3.3222656 Z m 1.74414,0 v 0.2167969 h 1.308594 V 3.3222656 Z m 1.744141,0 v 0.2167969 h 1.308594 V 3.3222656 Z m 1.74414,0 v 0.2167969 h 1.308594 V 3.3222656 Z m 1.744141,0 v 0.2167969 h 1.308594 V 3.3222656 Z m 1.744141,0 v 0.2167969 h 1.308593 V 3.3222656 Z m 1.74414,0 v 0.2167969 h 1.308594 V 3.3222656 Z m 1.744141,0 v 0.2167969 h 1.308594 V 3.3222656 Z m 1.744141,0 v 0.2167969 h 1.30664 V 3.3222656 Z m 1.74414,0 v 0.2167969 h 1.306641 V 3.3222656 Z m 1.744141,0 v 0.2167969 h 1.30664 V 3.3222656 Z m 1.74414,0 v 0.2167969 h 1.306641 V 3.3222656 Z m 1.742188,0 v 0.2167969 h 1.308594 V 3.3222656 Z m 1.744141,0 v 0.2167969 h 1.308593 V 3.3222656 Z m 1.74414,0 V 3.5390625 H 50 V 3.3222656 Z"
       id="path21" />
    <path
       style="color:#000000;fill:#05ff35;stroke-dasharray:1.308, 0.436;-inkscape-stroke:none"
       d="M 0,7.5 V 7.71875 H 1.1679687 V 7.5 Z m 1.6035156,0 V 7.71875 H 2.9121094 V 7.5 Z m 1.7441407,0 V 7.71875 H 4.65625 V 7.5 Z m 1.7441406,0 V 7.71875 H 6.4003906 V 7.5 Z m 1.7441406,0 V 7.71875 H 8.1445313 V 7.5 Z m 1.7441406,0 V 7.71875 H 9.8886719 V 7.5 Z m 1.7441409,0 v 0.21875 h 1.308594 V 7.5 Z m 1.74414,0 v 0.21875 h 1.308594 V 7.5 Z m 1.744141,0 v 0.21875 h 1.306641 V 7.5 Z m 1.744141,0 v 0.21875 h 1.30664 V 7.5 Z m 1.74414,0 v 0.21875 h 1.306641 V 7.5 Z m 1.744141,0 v 0.21875 h 1.30664 V 7.5 Z m 1.742187,0 v 0.21875 h 1.308594 V 7.5 Z m 1.744141,0 v 0.21875 h 1.308594 V 7.5 Z m 1.744141,0 v 0.21875 h 1.308593 V 7.5 Z m 1.74414,0 v 0.21875 h 1.308594 V 7.5 Z m 1.744141,0 v 0.21875 h 1.308594 V 7.5 Z m 1.74414,0 v 0.21875 h 1.308594 V 7.5 Z m 1.744141,0 v 0.21875 h 1.308594 V 7.5 Z m 1.744141,0 v 0.21875 h 1.308593 V 7.5 Z m 1.74414,0 v 0.21875 h 1.308594 V 7.5 Z m 1.744141,0 v 0.21875 h 1.308594 V 7.5 Z m 1.744141,0 v 0.21875 h 1.30664 V 7.5 Z m 1.74414,0 v 0.21875 h 1.306641 V 7.5 Z m 1.744141,0 v 0.21875 h 1.30664 V 7.5 Z m 1.74414,0 v 0.21875 h 1.306641 V 7.5 Z m 1.742188,0 v 0.21875 h 1.308594 V 7.5 Z m 1.744141,0 v 0.21875 h 1.308593 V 7.5 Z m 1.74414,0 V 7.71875 H 50 V 7.5 Z"
       id="path22" />
  </g>
</svg>
