<?xml version="1.0" encoding="UTF-8" standalone="no"?>
<!-- Created with Inkscape (http://www.inkscape.org/) -->

<svg
   width="210mm"
   height="10mm"
   viewBox="0 0 210 10"
   version="1.1"
   id="svg1"
   sodipodi:docname="text.svg"
   inkscape:version="1.3.2 (091e20e, 2023-11-25, custom)"
   xmlns:inkscape="http://www.inkscape.org/namespaces/inkscape"
   xmlns:sodipodi="http://sodipodi.sourceforge.net/DTD/sodipodi-0.dtd"
   xmlns="http://www.w3.org/2000/svg"
   xmlns:svg="http://www.w3.org/2000/svg">
  <sodipodi:namedview
     id="namedview1"
     pagecolor="#505050"
     bordercolor="#ffffff"
     borderopacity="1"
     inkscape:showpageshadow="0"
     inkscape:pageopacity="0"
     inkscape:pagecheckerboard="1"
     inkscape:deskcolor="#505050"
     inkscape:document-units="mm"
     inkscape:zoom="1.4805977"
     inkscape:cx="418.74982"
     inkscape:cy="35.458654"
     inkscape:window-width="1920"
     inkscape:window-height="1027"
     inkscape:window-x="-8"
     inkscape:window-y="-8"
     inkscape:window-maximized="1"
     inkscape:current-layer="layer1" />
  <defs
     id="defs1" />
  <g
     inkscape:label="Layer 1"
     inkscape:groupmode="layer"
     id="layer1">
    <path
       d="M 2.7785339,2.3313982 H 1.3162822 V 1.7035837 H 4.9321763 V 2.3313982 H 3.4619776 V 7.1075573 H 2.7785339 Z M 6.2354908,1.3221267 h 0.6675496 v 2.2490067 h 0.055629 Q 7.141451,3.1578883 7.3957557,3.014842 7.6580073,2.8638486 8.1984047,2.8638486 q 0.5324504,0 0.8185431,0.1430463 0.2860927,0.1430464 0.405298,0.4768213 0.1271523,0.3337748 0.1271523,0.9615894 V 7.1075573 H 8.8897955 V 4.4294115 q 0,-0.3814569 -0.087417,-0.5880794 Q 8.722908,3.6347095 8.5321796,3.5472923 8.3414511,3.4598751 7.9917822,3.4598751 q -0.4291391,0 -0.6596027,0.1350993 Q 7.1017159,3.7300738 6.9984047,4.0479546 6.9030404,4.3658354 6.9030404,4.9539149 V 7.1075573 H 6.2354908 Z m 6.4847712,5.8649008 q -0.715232,0 -1.096688,-0.1907285 Q 11.250064,6.8055705 11.091123,6.3446434 10.94013,5.8837162 10.94013,5.009544 q 0,-0.8503311 0.15894,-1.3112583 0.158941,-0.4609272 0.524504,-0.6437086 0.373509,-0.1907285 1.033112,-0.1907285 0.715232,0 1.072848,0.2145695 0.365563,0.2066226 0.500662,0.7152318 0.135099,0.5086093 0.119205,1.5019868 h -2.741722 q 0.02384,0.5245033 0.127153,0.802649 0.103311,0.2781458 0.325828,0.389404 0.230463,0.1112583 0.651655,0.1112583 0.397351,0 0.580133,-0.1112583 0.182781,-0.1192053 0.286092,-0.4529801 h 0.691391 q -0.08742,0.4609272 -0.254304,0.7072848 -0.158941,0.2463576 -0.460928,0.3496689 -0.301986,0.095364 -0.834437,0.095364 z M 13.71364,4.7155043 Q 13.697746,4.206895 13.594434,3.9446433 13.49907,3.6744446 13.276554,3.5631864 13.061984,3.4519281 12.656686,3.4519281 q -0.381457,0 -0.596026,0.1112583 -0.206623,0.1112582 -0.309934,0.3814569 -0.09536,0.2622517 -0.1351,0.770861 z m 9.472854,1.9390729 h -0.06358 q -0.190729,0.3099337 -0.429139,0.421192 -0.238411,0.1112583 -0.699338,0.1112583 -0.643709,0 -0.993378,-0.1907285 Q 20.651395,6.7976235 20.500401,6.3366964 20.357355,5.8757692 20.357355,5.025438 q 0,-0.8582781 0.150993,-1.3192053 0.150994,-0.4609271 0.500662,-0.6516556 0.357616,-0.1986755 1.009272,-0.1986755 0.413245,0 0.643709,0.1112582 0.23841,0.1112583 0.468874,0.4211921 h 0.05563 V 2.9592128 h 0.659603 V 8.8161666 H 23.186494 Z M 21.032852,5.025438 q 0,0.6119206 0.103311,0.9536424 0.103311,0.3337749 0.341722,0.4768213 0.23841,0.1350993 0.683443,0.1350993 0.413245,0 0.627815,-0.1350993 0.222517,-0.1430464 0.317881,-0.4768213 0.09536,-0.3337748 0.09536,-0.9536424 0,-0.6198675 -0.09536,-0.9536424 -0.09536,-0.3417218 -0.317881,-0.4768212 -0.21457,-0.1430463 -0.627815,-0.1430463 -0.445033,0 -0.683443,0.1430463 -0.238411,0.1430464 -0.341722,0.4768212 -0.103311,0.3337749 -0.103311,0.9536424 z m 5.547023,2.1615895 q -0.50861,0 -0.786755,-0.1350993 Q 25.522921,6.9088818 25.403716,6.575107 25.292457,6.2333851 25.292457,5.6135175 V 2.9592128 h 0.66755 v 2.6701988 q 0,0.3735099 0.07152,0.5801324 0.07947,0.2066226 0.254305,0.2940398 0.174834,0.087417 0.492715,0.087417 0.460927,0 0.707285,-0.1350993 Q 27.73219,6.3208021 27.835501,6.0029213 27.946759,5.6850405 27.946759,5.104908 V 2.9592128 h 0.659603 v 4.1483445 h -0.6596 V 6.4876897 h -0.05563 q -0.18278,0.397351 -0.460926,0.5483444 -0.278146,0.1509934 -0.850331,0.1509934 z M 31.340143,1.3221267 H 32.25405 V 2.228087 h -0.913907 z m -1.088742,5.1973511 h 1.343046 V 3.5393453 H 30.330871 V 2.9592128 h 1.915232 v 3.560265 h 1.287417 v 0.5801325 h -3.282119 z m 6.38146,0.6675497 q -0.707284,0 -1.096688,-0.1907285 -0.381457,-0.1986755 -0.548345,-0.6516556 -0.15894,-0.4609272 -0.15894,-1.3112583 0,-0.8582782 0.15894,-1.3192054 0.166888,-0.4688741 0.548345,-0.6596026 0.381457,-0.1986755 1.080794,-0.1986755 0.58808,0 0.913908,0.1192053 0.325827,0.1192053 0.476821,0.405298 0.150993,0.2781457 0.182781,0.794702 h -0.659602 q -0.07947,-0.413245 -0.262252,-0.5642384 -0.182782,-0.1509934 -0.603974,-0.1509934 -0.460927,0 -0.707284,0.1430464 -0.246358,0.1430463 -0.357616,0.4847682 -0.103312,0.3337748 -0.103312,0.9615894 0,0.6039735 0.103312,0.9298013 0.111258,0.3258279 0.357616,0.4688742 0.254304,0.1350994 0.715231,0.1350994 0.413245,0 0.58808,-0.1271523 0.182781,-0.1350994 0.270199,-0.5006623 h 0.659602 q -0.03179,0.4847682 -0.182781,0.7470199 -0.150994,0.2622516 -0.476821,0.3735099 -0.317881,0.1112583 -0.898014,0.1112583 z M 40.526904,4.8903387 V 7.1075573 H 39.875249 V 1.3221267 h 0.651655 v 3.4490067 l 1.70861,-1.8119206 h 0.858278 l -1.772186,1.8516557 2.034437,2.2966888 h -0.890066 z m 10.458285,2.2966888 q -0.413245,0 -0.651656,-0.1112583 -0.230463,-0.1112583 -0.460927,-0.421192 h -0.05563 v 0.4529801 h -0.659603 l 0.0079,-5.7854306 h 0.659603 l -0.0079,2.0741722 h 0.06358 q 0.190729,-0.3099338 0.421192,-0.421192 0.238411,-0.1112583 0.707285,-0.1112583 0.643709,0 0.993378,0.1986755 0.349668,0.1907285 0.492715,0.6516556 0.150993,0.4529802 0.150993,1.3033113 0,0.8582782 -0.150993,1.3192054 -0.150994,0.4609271 -0.508609,0.6596026 -0.349669,0.1907285 -1.001325,0.1907285 z M 49.801083,5.017491 q 0,0.6198676 0.09536,0.9615894 0.09537,0.3337749 0.309934,0.4768213 0.222517,0.1350993 0.635762,0.1350993 0.445033,0 0.683443,-0.1430464 0.238411,-0.1430463 0.341722,-0.4768212 0.103311,-0.3337748 0.103311,-0.9536424 0,-0.6119205 -0.103311,-0.9456954 -0.103311,-0.3337748 -0.341722,-0.4688741 -0.23841,-0.1430464 -0.683443,-0.1430464 -0.413245,0 -0.635762,0.1430464 -0.214569,0.1350993 -0.309934,0.4688741 -0.09536,0.3337749 -0.09536,0.9456954 z m 4.720533,-2.0582782 h 0.635762 l -0.02384,0.9774835 h 0.06358 q 0.222516,-0.5086093 0.349669,-0.6993378 0.135099,-0.1986755 0.286092,-0.2463576 0.150994,-0.047682 0.516557,-0.055629 l 0.349669,-0.00795 q 0.198675,0 0.437086,0.015894 v 0.6278146 q -0.182782,-0.00795 -0.476822,-0.00795 -0.294039,0 -0.476821,0.023841 -0.230463,0.039735 -0.468874,0.2543047 -0.238411,0.2066225 -0.397351,0.5245033 -0.150993,0.3099338 -0.150993,0.6437086 v 2.0980133 h -0.643709 z m 5.817222,4.2278147 q -0.699338,0 -1.080795,-0.1907285 -0.37351,-0.1986755 -0.53245,-0.6596026 -0.158941,-0.4609272 -0.158941,-1.3112584 0,-0.8582781 0.158941,-1.3192053 0.15894,-0.4609271 0.53245,-0.6516556 0.381457,-0.1986755 1.080795,-0.1986755 0.699338,0 1.080795,0.1986755 0.381457,0.1907285 0.540397,0.6596026 0.15894,0.4609272 0.15894,1.3112583 0,0.8503312 -0.15894,1.3112584 -0.15894,0.4609271 -0.540397,0.6596026 -0.381457,0.1907285 -1.080795,0.1907285 z M 59.234202,5.025438 q 0,0.6198676 0.09536,0.9536424 0.103312,0.3337749 0.333775,0.4768213 0.238411,0.1350993 0.675497,0.1350993 0.437086,0 0.675497,-0.1350993 0.23841,-0.1430464 0.333774,-0.4768213 0.103312,-0.3337748 0.103312,-0.9536424 0,-0.6278145 -0.103312,-0.9615894 -0.09536,-0.3337748 -0.333774,-0.4768212 -0.238411,-0.1430463 -0.675497,-0.1430463 -0.437086,0 -0.675497,0.1430463 -0.230463,0.1430464 -0.333775,0.4768212 -0.09536,0.3337749 -0.09536,0.9615894 z m 6.572189,2.0821193 -0.66755,-3.4092716 h -0.03973 L 64.423609,7.1075573 H 63.700431 L 62.810364,2.9512658 h 0.699338 l 0.53245,3.3615895 h 0.07152 l 0.659602,-3.3536425 h 0.691391 l 0.651656,3.3536425 h 0.07152 l 0.53245,-3.3615895 h 0.699338 L 66.52957,7.1075573 Z m 2.415897,-4.1483445 h 0.66755 v 0.6039736 h 0.05563 q 0.174834,-0.4132451 0.437086,-0.5562915 0.270199,-0.1509933 0.810596,-0.1509933 0.524503,0 0.810596,0.1430463 0.286093,0.1430464 0.405298,0.4847683 0.127152,0.3337748 0.127152,0.9536424 V 7.1075573 H 70.876593 V 4.4214645 q 0,-0.3735099 -0.08742,-0.5801324 -0.07947,-0.2066226 -0.270199,-0.2860928 -0.182782,-0.087417 -0.53245,-0.087417 -0.42914,0 -0.66755,0.1350994 -0.230464,0.1350993 -0.333775,0.4529801 -0.09536,0.3099338 -0.09536,0.8900662 v 2.1615895 h -0.66755 z m 10.65696,0.6278146 H 77.846136 L 77.655407,2.9592128 h 1.223841 V 2.3870274 q 0,-0.4768212 0.143047,-0.7390729 0.150993,-0.2701987 0.508609,-0.3814569 0.357616,-0.1192053 1.001324,-0.1192053 0.143047,0 0.50861,0.015894 v 0.5880795 q -0.1351,-0.00795 -0.37351,-0.00795 -0.445033,0 -0.691391,0.063576 -0.246358,0.063576 -0.349669,0.2145696 -0.103311,0.1430463 -0.103311,0.397351 v 0.5403973 h 1.438411 v 0.6278146 h -1.438411 v 3.5205299 h -0.643709 z m 5.30067,3.6000001 q -0.699338,0 -1.080795,-0.1907285 -0.37351,-0.1986755 -0.53245,-0.6596026 -0.158941,-0.4609272 -0.158941,-1.3112584 0,-0.8582781 0.158941,-1.3192053 0.15894,-0.4609271 0.53245,-0.6516556 0.381457,-0.1986755 1.080795,-0.1986755 0.699337,0 1.080794,0.1986755 0.381457,0.1907285 0.540398,0.6596026 0.15894,0.4609272 0.15894,1.3112583 0,0.8503312 -0.15894,1.3112584 -0.158941,0.4609271 -0.540398,0.6596026 -0.381457,0.1907285 -1.080794,0.1907285 z M 83.075282,5.025438 q 0,0.6198676 0.09536,0.9536424 0.103311,0.3337749 0.333775,0.4768213 0.238411,0.1350993 0.675497,0.1350993 0.437086,0 0.675496,-0.1350993 Q 85.093825,6.3128553 85.189189,5.9790804 85.2925,5.6453056 85.2925,5.025438 q 0,-0.6278145 -0.103311,-0.9615894 -0.09536,-0.3337748 -0.333775,-0.4768212 -0.23841,-0.1430463 -0.675496,-0.1430463 -0.437086,0 -0.675497,0.1430463 -0.230464,0.1430464 -0.333775,0.4768212 -0.09536,0.3337749 -0.09536,0.9615894 z M 88.526937,5.009544 87.183891,2.9592128 h 0.77086 l 0.993378,1.6211921 h 0.01589 l 0.993378,-1.6211921 h 0.77086 L 89.377268,5.009544 90.799785,7.1075573 H 90.01303 L 88.956076,5.4704712 h -0.0079 L 87.899122,7.1075573 H 87.112367 Z M 98.341513,1.3221267 H 99.25542 V 2.228087 H 98.341513 Z M 97.109725,8.2678222 Q 97.729592,8.172458 98.031579,8.0691467 98.333566,7.9737825 98.444824,7.8227891 98.56403,7.6797427 98.56403,7.4095441 V 3.5472923 H 97.371977 V 2.9592128 h 1.843708 v 4.4900664 q 0,0.5245033 -0.166887,0.7867549 -0.166888,0.2701987 -0.603974,0.4052981 -0.437086,0.1350993 -1.335099,0.2145695 z m 5.761595,-1.0807947 q -0.50861,0 -0.78675,-0.1350993 Q 101.81437,6.9088818 101.69516,6.575107 101.5839,6.2333851 101.5839,5.6135175 V 2.9592128 h 0.66755 v 2.6701988 q 0,0.3735099 0.0715,0.5801324 0.0795,0.2066226 0.2543,0.2940398 0.17484,0.087417 0.49272,0.087417 0.46092,0 0.70728,-0.1350993 0.24636,-0.1350994 0.34967,-0.4529802 0.11126,-0.3178808 0.11126,-0.8980133 V 2.9592128 h 0.6596 v 4.1483445 h -0.6596 V 6.4876897 h -0.0556 q -0.18278,0.397351 -0.46093,0.5483444 -0.27814,0.1509934 -0.85033,0.1509934 z m 3.13907,-4.2278147 h 0.59603 v 0.5324504 h 0.0556 q 0.1351,-0.3576159 0.30199,-0.4927153 0.16688,-0.1350993 0.47682,-0.1350993 0.35761,0 0.54834,0.1430463 0.19073,0.1350994 0.27815,0.4847683 h 0.0397 q 0.14305,-0.365563 0.31788,-0.4927153 0.18278,-0.1350993 0.51656,-0.1350993 0.34967,0 0.5404,0.1430463 0.19867,0.1430464 0.27814,0.4768213 0.0795,0.3337748 0.0795,0.9377483 v 2.6860928 h -0.62781 V 4.5724579 q 0,-0.4291391 -0.0477,-0.6596027 -0.0397,-0.2384106 -0.15894,-0.3417218 -0.11126,-0.1033113 -0.31789,-0.1033113 -0.21456,0 -0.33377,0.1112583 -0.11921,0.1112583 -0.16689,0.3735099 -0.0477,0.2543047 -0.0477,0.7390729 v 2.4158941 h -0.6198 l 0.0159,-2.5271524 q 0.008,-0.6278146 -0.12716,-0.8662252 -0.12715,-0.2463576 -0.42913,-0.2463576 -0.21457,0 -0.33378,0.1192053 -0.11126,0.1112583 -0.16689,0.389404 -0.0477,0.2701987 -0.0477,0.7629139 v 2.368212 h -0.61987 z m 5.12583,0 h 0.6596 v 0.4291391 h 0.0556 q 0.23047,-0.3099338 0.46093,-0.4211921 0.23841,-0.1112582 0.65166,-0.1112582 0.65165,0 1.00132,0.1986755 0.35762,0.1907285 0.50861,0.6516556 0.15099,0.4609272 0.15099,1.3192053 0,0.8503312 -0.15099,1.3112584 -0.14305,0.4609271 -0.49272,0.6596026 -0.34966,0.1907285 -1.00132,0.1907285 -0.46093,0 -0.69934,-0.1112583 -0.23046,-0.1112583 -0.42119,-0.421192 h -0.0636 v 2.1615894 h -0.6596 z m 0.64371,2.0662252 q 0,0.6198676 0.0954,0.9536424 0.0954,0.3337749 0.30994,0.4768213 0.22251,0.1350993 0.63576,0.1350993 0.44503,0 0.68344,-0.1350993 0.23841,-0.1430464 0.34172,-0.4768213 0.10332,-0.3417218 0.10332,-0.9536424 0,-0.6198675 -0.10332,-0.9536424 -0.10331,-0.3337748 -0.34172,-0.4768212 -0.23841,-0.1430463 -0.68344,-0.1430463 -0.41325,0 -0.63576,0.1430463 -0.21457,0.1350994 -0.30994,0.4768212 -0.0954,0.3337749 -0.0954,0.9536424 z m 5.79338,2.1615895 q -0.66755,0 -1.03311,-0.1112583 -0.36556,-0.1112583 -0.51655,-0.3814569 -0.151,-0.2701987 -0.151,-0.762914 h 0.6755 q 0.0159,0.2701987 0.1192,0.4132451 0.10332,0.1350993 0.32583,0.1986755 0.23047,0.055629 0.64371,0.055629 0.36556,0 0.56424,-0.055629 0.19867,-0.055629 0.27814,-0.1827815 0.0874,-0.1271523 0.0874,-0.3655629 0,-0.2145696 -0.11126,-0.3496689 Q 118.3521,5.5022592 118.0978,5.406895 117.84349,5.3035837 117.36667,5.2082195 116.80243,5.0969612 116.4925,4.9539149 116.19051,4.8108685 116.05541,4.596299 q -0.12715,-0.2225166 -0.12715,-0.5721855 0,-0.4609271 0.14305,-0.7072848 0.15099,-0.2463576 0.49271,-0.3496689 0.34967,-0.1112582 0.99338,-0.1112582 0.60397,0 0.9298,0.095364 0.32583,0.095364 0.47682,0.3337749 0.151,0.2304635 0.17484,0.6596026 h -0.65961 q -0.0397,-0.2940397 -0.23841,-0.397351 -0.19867,-0.1033112 -0.69139,-0.1033112 -0.38145,0 -0.58808,0.055629 -0.20662,0.047682 -0.29404,0.1748344 -0.0874,0.1271524 -0.0874,0.3576159 0,0.1350994 0.11125,0.2384106 0.11921,0.1033113 0.38941,0.2066226 0.2702,0.095364 0.77086,0.2225165 0.54834,0.1350994 0.84238,0.2940398 0.29404,0.1589404 0.41325,0.3894039 0.1192,0.2304636 0.1192,0.5960265 0,0.4768213 -0.15099,0.7390729 -0.15099,0.2543047 -0.50066,0.3655629 -0.34967,0.1033113 -1.00133,0.1033113 z m 9.52054,0 q -0.69934,0 -1.08079,-0.1907285 -0.37351,-0.1986755 -0.53245,-0.6596026 -0.15895,-0.4609272 -0.15895,-1.3112584 0,-0.8582781 0.15895,-1.3192053 0.15894,-0.4609271 0.53245,-0.6516556 0.38145,-0.1986755 1.08079,-0.1986755 0.69934,0 1.0808,0.1986755 0.38145,0.1907285 0.54039,0.6596026 0.15894,0.4609272 0.15894,1.3112583 0,0.8503312 -0.15894,1.3112584 -0.15894,0.4609271 -0.54039,0.6596026 -0.38146,0.1907285 -1.0808,0.1907285 z M 125.98921,5.025438 q 0,0.6198676 0.0954,0.9536424 0.10331,0.3337749 0.33377,0.4768213 0.23841,0.1350993 0.6755,0.1350993 0.43709,0 0.6755,-0.1350993 0.23841,-0.1430464 0.33377,-0.4768213 0.10331,-0.3337748 0.10331,-0.9536424 0,-0.6278145 -0.10331,-0.9615894 -0.0954,-0.3337748 -0.33377,-0.4768212 -0.23841,-0.1430463 -0.6755,-0.1430463 -0.43709,0 -0.6755,0.1430463 -0.23046,0.1430464 -0.33377,0.4768212 -0.0954,0.3337749 -0.0954,0.9615894 z m 3.95762,-2.0662252 h 0.69934 l 1.19205,3.3774836 h 0.0556 l 1.19205,-3.3774836 h 0.69934 l -1.56556,4.1483445 h -0.70729 z m 6.74703,4.2278147 q -0.71523,0 -1.09669,-0.1907285 -0.37351,-0.1907285 -0.53245,-0.6516556 -0.151,-0.4609272 -0.151,-1.3350994 0,-0.8503311 0.15894,-1.3112583 0.15895,-0.4609272 0.52451,-0.6437086 0.37351,-0.1907285 1.03311,-0.1907285 0.71523,0 1.07285,0.2145695 0.36556,0.2066226 0.50066,0.7152318 0.1351,0.5086093 0.11921,1.5019868 h -2.74173 q 0.0239,0.5245033 0.12716,0.802649 0.10331,0.2781458 0.32582,0.389404 0.23047,0.1112583 0.65166,0.1112583 0.39735,0 0.58013,-0.1112583 0.18278,-0.1192053 0.2861,-0.4529801 h 0.69139 q -0.0874,0.4609272 -0.25431,0.7072848 -0.15894,0.2463576 -0.46093,0.3496689 -0.30198,0.095364 -0.83443,0.095364 z m 0.99337,-2.4715232 q -0.0159,-0.5086093 -0.1192,-0.770861 -0.0954,-0.2701987 -0.31788,-0.3814569 -0.21457,-0.1112583 -0.61987,-0.1112583 -0.38146,0 -0.59603,0.1112583 -0.20662,0.1112582 -0.30993,0.3814569 -0.0954,0.2622517 -0.1351,0.770861 z m 2.66226,-1.7562915 h 0.63576 l -0.0238,0.9774835 h 0.0636 q 0.22252,-0.5086093 0.34967,-0.6993378 0.1351,-0.1986755 0.28609,-0.2463576 0.15099,-0.047682 0.51656,-0.055629 l 0.34967,-0.00795 q 0.19867,0 0.43708,0.015894 v 0.6278146 q -0.18278,-0.00795 -0.47682,-0.00795 -0.29404,0 -0.47682,0.023841 -0.23046,0.039735 -0.46887,0.2543047 -0.23841,0.2066225 -0.39735,0.5245033 -0.151,0.3099338 -0.151,0.6437086 v 2.0980133 h -0.64371 z m 11.08609,4.2357617 q -0.5086,0 -0.76291,-0.1350993 -0.2543,-0.1350994 -0.34172,-0.4132451 -0.0874,-0.2781457 -0.0874,-0.786755 V 3.5472923 h -1.07285 l 0.15894,-0.5880795 h 0.9457 V 2.0294115 l 0.61987,-0.2622517 v 1.192053 h 1.4543 v 0.5880795 h -1.4543 v 2.2807948 q 0,0.2781457 0.0556,0.4370861 0.0636,0.1589404 0.23046,0.2463576 0.17483,0.07947 0.51656,0.07947 0.30198,0 0.82649,-0.071523 v 0.5880795 q -0.69934,0.087417 -1.08875,0.087417 z m 2.61458,-5.8728478 h 0.66755 v 2.2490067 h 0.0556 q 0.18278,-0.4132451 0.43709,-0.5562914 0.26225,-0.1509934 0.80265,-0.1509934 0.53245,0 0.81854,0.1430463 0.28609,0.1430464 0.4053,0.4768213 0.12715,0.3337748 0.12715,0.9615894 v 2.6622517 h -0.6596 V 4.4294115 q 0,-0.3814569 -0.0874,-0.5880794 -0.0795,-0.2066226 -0.2702,-0.2940398 -0.19073,-0.087417 -0.5404,-0.087417 -0.42914,0 -0.6596,0.1350993 -0.23046,0.1350994 -0.33377,0.4529802 -0.0954,0.3178808 -0.0954,0.9059603 v 2.1536424 h -0.66755 z m 6.48478,5.8649008 q -0.71524,0 -1.09669,-0.1907285 -0.37351,-0.1907285 -0.53245,-0.6516556 -0.151,-0.4609272 -0.151,-1.3350994 0,-0.8503311 0.15894,-1.3112583 0.15894,-0.4609272 0.52451,-0.6437086 0.37351,-0.1907285 1.03311,-0.1907285 0.71523,0 1.07285,0.2145695 0.36556,0.2066226 0.50066,0.7152318 0.1351,0.5086093 0.11921,1.5019868 h -2.74173 q 0.0238,0.5245033 0.12716,0.802649 0.10331,0.2781458 0.32582,0.389404 0.23047,0.1112583 0.65166,0.1112583 0.39735,0 0.58013,-0.1112583 0.18278,-0.1192053 0.28609,-0.4529801 h 0.6914 q -0.0874,0.4609272 -0.25431,0.7072848 -0.15894,0.2463576 -0.46093,0.3496689 -0.30198,0.095364 -0.83443,0.095364 z m 0.99337,-2.4715232 q -0.0159,-0.5086093 -0.1192,-0.770861 -0.0954,-0.2701987 -0.31788,-0.3814569 -0.21457,-0.1112583 -0.61987,-0.1112583 -0.38146,0 -0.59603,0.1112583 -0.20662,0.1112582 -0.30993,0.3814569 -0.0954,0.2622517 -0.1351,0.770861 z m 6.81855,1.8039735 h 1.41457 V 1.9181532 h -1.3351 V 1.3221267 h 1.9788 v 5.1973511 h 1.31921 v 0.5880795 h -3.37748 z m 6.03179,0.6675497 q -0.50861,0 -0.78675,-0.1112583 -0.2702,-0.1112583 -0.38941,-0.3735099 -0.11126,-0.2622517 -0.11126,-0.7470199 0,-0.5721855 0.16689,-0.8821192 0.16689,-0.3178808 0.55629,-0.4450332 0.39735,-0.1350993 1.12053,-0.1350993 h 0.74702 V 4.2943122 q 0,-0.3337748 -0.0874,-0.5165563 -0.0795,-0.1827815 -0.2861,-0.2622517 -0.19867,-0.07947 -0.57218,-0.07947 -0.48477,0 -0.65961,0.1271524 -0.17483,0.1192053 -0.19072,0.4688741 h -0.66755 q 0,-0.4609271 0.1351,-0.7072847 0.13509,-0.2543047 0.46092,-0.357616 0.32583,-0.1112582 0.92186,-0.1112582 0.61986,0 0.95364,0.1271523 0.34172,0.1271523 0.47682,0.4370861 0.14305,0.3099338 0.14305,0.8741722 V 7.1075573 H 175.7058 V 6.575107 h -0.0556 q -0.20662,0.3496688 -0.47682,0.4847682 -0.26225,0.1271523 -0.7947,0.1271523 z m -0.61987,-1.3033113 q 0,0.4132451 0.16689,0.5642384 0.16689,0.1430464 0.61987,0.1430464 0.44503,0 0.68344,-0.1350993 0.23841,-0.1430464 0.34172,-0.4688742 0.10332,-0.3258279 0.10332,-0.9298014 l -0.89802,0.00795 q -0.39735,0.00795 -0.61987,0.087417 -0.21456,0.071523 -0.30993,0.2463576 -0.0874,0.1668874 -0.0874,0.4847682 z m 4.18809,0.6437086 2.43179,-2.9880795 h -2.29669 V 2.9592128 h 3.05166 v 0.5483444 l -2.43179,3.0119206 2.43179,-0.00795 v 0.5960265 h -3.18676 z m 6.20661,0.2781457 h -0.31788 l -1.38278,-3.8463577 h 0.6755 l 1.1841,3.3695365 h 0.0159 l 1.14437,-3.3695365 h 0.6755 l -2.05033,5.9046359 h -0.66755 z m 9.5126,0.381457 q -0.65165,0 -1.00927,-0.1907285 -0.34967,-0.1986755 -0.50066,-0.6596026 -0.151,-0.4609272 -0.151,-1.3192054 0,-0.8503311 0.14305,-1.3033113 0.15099,-0.4609271 0.50066,-0.6516556 0.34967,-0.1986755 0.99338,-0.1986755 0.46887,0 0.70729,0.1112583 0.23841,0.1112582 0.42119,0.421192 h 0.0636 V 1.3221267 h 0.65961 v 5.7854306 h -0.65961 V 6.6545772 h -0.0556 q -0.22251,0.3099337 -0.46092,0.421192 -0.23047,0.1112583 -0.65166,0.1112583 z M 192.68065,5.017491 q 0,0.6198676 0.10331,0.9536424 0.10331,0.3337749 0.34172,0.4768212 0.23841,0.1430464 0.68345,0.1430464 0.41324,0 0.62781,-0.1350993 0.22252,-0.1430464 0.31788,-0.4768213 0.0954,-0.3417218 0.0954,-0.9615894 0,-0.6119205 -0.0954,-0.9456954 -0.0954,-0.3337748 -0.31788,-0.4688741 -0.21457,-0.1430464 -0.62781,-0.1430464 -0.44504,0 -0.68345,0.1430464 -0.23841,0.1350993 -0.34172,0.4688741 -0.10331,0.3337749 -0.10331,0.9456954 z m 5.93643,2.1695365 q -0.69934,0 -1.08079,-0.1907285 -0.37351,-0.1986755 -0.53245,-0.6596026 -0.15894,-0.4609272 -0.15894,-1.3112584 0,-0.8582781 0.15894,-1.3192053 0.15894,-0.4609271 0.53245,-0.6516556 0.38145,-0.1986755 1.08079,-0.1986755 0.69934,0 1.0808,0.1986755 0.38145,0.1907285 0.54039,0.6596026 0.15894,0.4609272 0.15894,1.3112583 0,0.8503312 -0.15894,1.3112584 -0.15894,0.4609271 -0.54039,0.6596026 -0.38146,0.1907285 -1.0808,0.1907285 z M 197.51245,5.025438 q 0,0.6198676 0.0954,0.9536424 0.10331,0.3337749 0.33378,0.4768213 0.23841,0.1350993 0.67549,0.1350993 0.43709,0 0.6755,-0.1350993 0.23841,-0.1430464 0.33377,-0.4768213 0.10331,-0.3337748 0.10331,-0.9536424 0,-0.6278145 -0.10331,-0.9615894 -0.0954,-0.3337748 -0.33377,-0.4768212 -0.23841,-0.1430463 -0.6755,-0.1430463 -0.43708,0 -0.67549,0.1430463 -0.23047,0.1430464 -0.33378,0.4768212 -0.0954,0.3337749 -0.0954,0.9615894 z m 5.82517,3.7907286 q -0.61987,0 -0.96159,-0.1112583 -0.33378,-0.1112583 -0.49272,-0.3735099 -0.15894,-0.2543047 -0.19072,-0.7311259 h 0.66755 q 0.008,0.2543047 0.0954,0.389404 0.0874,0.1430464 0.29404,0.1986755 0.21457,0.063576 0.59603,0.063576 0.39735,0 0.61192,-0.1033113 0.22251,-0.095364 0.30993,-0.3417218 0.0954,-0.2384106 0.10331,-0.6834438 V 6.5035838 h -0.0556 q -0.1192,0.3576159 -0.34967,0.4927152 -0.22251,0.1350994 -0.73112,0.1350994 -0.66755,0 -1.03312,-0.1907285 -0.35761,-0.1907285 -0.5086,-0.6357616 -0.151,-0.4529802 -0.151,-1.2794703 0,-0.8582781 0.151,-1.3192053 0.15099,-0.4609271 0.51655,-0.6516556 0.36556,-0.1986755 1.03311,-0.1986755 0.50067,0 0.73113,0.1271523 0.23841,0.1271523 0.35762,0.4927152 h 0.0636 V 2.9592128 h 0.62782 v 4.2516558 q -0.008,0.6357616 -0.15894,0.9774834 -0.151,0.3417219 -0.50861,0.4847682 -0.35762,0.1430464 -1.01722,0.1430464 z M 202.20914,5.025438 q 0,0.5960265 0.0954,0.9218544 0.0954,0.3258278 0.32582,0.4609271 0.23047,0.1350994 0.65961,0.1350994 0.42914,0 0.6596,-0.1350994 0.23046,-0.1350993 0.32583,-0.4609271 0.0954,-0.3258279 0.0954,-0.9218544 0,-0.6278145 -0.0954,-0.9615894 -0.0954,-0.3337748 -0.32583,-0.4768212 -0.23046,-0.1430463 -0.6596,-0.1430463 -0.42914,0 -0.65961,0.1430463 -0.23046,0.1430464 -0.32582,0.4768212 -0.0954,0.3337749 -0.0954,0.9615894 z m 5.34834,0.8662252 h 1.20795 v 1.2158941 h -1.20795 z"
       id="text1"
       style="font-size:7.94702px;font-family:'Berkeley Mono';-inkscape-font-specification:'Berkeley Mono';fill:none;stroke:#05ff35;stroke-width:0.248344"
       aria-label="The quick brown fox jumps over the lazy dog." />
  </g>
</svg>
